<svg class="svg" xmlns="http://www.w3.org/2000/svg" xmlns:xlink="http://www.w3.org/1999/xlink" width="10" height="10"><path d="M2.8985 0.5H7.10105C8.6315 0.5 9.4955 1.36805 9.5 2.8985V7.1015C9.5 8.6315 8.6315 9.5 7.10105 9.5H2.8985C1.36805 9.5 0.5 8.6315 0.5 7.1015V2.8985C0.5 1.36805 1.36805 0.5 2.8985 0.5ZM5.02205 7.637C5.216 7.637 5.37755 7.493 5.39555 7.2995V2.714C5.41355 2.5745 5.3465 2.43455 5.225 2.3585C5.09855 2.282 4.94555 2.282 4.8245 2.3585C4.70255 2.43455 4.6355 2.5745 4.64855 2.714V7.2995C4.6715 7.493 4.83305 7.637 5.02205 7.637ZM7.0925 7.637C7.2815 7.637 7.44305 7.493 7.466 7.2995V5.8235C7.47905 5.67905 7.412 5.5445 7.29005 5.468C7.169 5.3915 7.016 5.3915 6.89 5.468C6.76805 5.5445 6.701 5.67905 6.719 5.8235V7.2995C6.737 7.493 6.89855 7.637 7.0925 7.637ZM3.29855 7.2995C3.28055 7.493 3.119 7.637 2.92505 7.637C2.73155 7.637 2.56955 7.493 2.552 7.2995V4.19C2.5385 4.05005 2.60555 3.911 2.7275 3.8345C2.84855 3.758 3.002 3.758 3.1235 3.8345C3.24455 3.911 3.3125 4.05005 3.29855 4.19V7.2995Z" fill="none" stroke-width="1" stroke="#B3B3B3"></path></svg>