<svg width="160" height="55" viewBox="0 0 160 55" fill="none" xmlns="http://www.w3.org/2000/svg">
<path d="M5.68745 48.4768C1.89791 44.654 0 39.0739 0 31.7298V6.10594C0 4.35492 0.515327 2.95667 1.5397 1.90477C2.57035 0.859291 3.94037 0.333344 5.65603 0.333344C7.3717 0.333344 8.72914 0.859291 9.72838 1.90477C10.7339 2.95667 11.2304 4.35492 11.2304 6.09952V28.401C11.2304 32.5957 12.173 35.7963 14.0584 37.9899C15.9437 40.1899 18.6712 41.2867 22.2471 41.2867C25.8166 41.2867 28.563 40.1771 30.4672 37.9514C32.3776 35.7322 33.3329 32.5444 33.3329 28.3946V6.10594C33.3329 4.35492 33.8356 2.95667 34.8349 1.91119C35.8404 0.859291 37.1978 0.339757 38.9072 0.339757C40.6229 0.339757 41.9929 0.865705 43.0173 1.91119C44.0479 2.96308 44.557 4.36133 44.557 6.10594V31.7298C44.557 39.0225 42.6465 44.5963 38.8318 48.4383C35.0171 52.2867 29.4805 54.2109 22.2408 54.2109C15.0011 54.2109 9.48328 52.2995 5.68745 48.4768Z" fill="url(#paint0_linear_115_4947)"/>
<path d="M130.633 47.7512C130.633 44.1525 127.706 41.2531 124.112 41.2851C123.094 41.298 120.314 41.3044 119.878 41.3044C116.233 41.3044 113.453 40.2075 111.532 38.0072C109.61 35.8069 108.649 32.6124 108.649 28.4171V6.10662C108.649 4.35539 108.137 2.95698 107.118 1.91137C106.1 0.859354 104.716 0.333344 102.974 0.333344C101.225 0.333344 99.8287 0.859353 98.7846 1.90496C97.734 2.95698 97.2152 4.35539 97.2152 6.10021V31.7272C97.2152 39.072 99.1497 44.6529 103.012 48.4761C106.875 52.2993 112.505 54.2109 119.884 54.2109H124.176C127.744 54.2173 130.633 51.3178 130.633 47.7512Z" fill="url(#paint1_linear_115_4947)"/>
<path d="M71.3924 54.2109C68.8641 54.2109 66.4129 53.7136 64.0969 52.7319C61.8645 51.7826 59.8637 50.4264 58.146 48.702C56.4282 46.9777 55.0772 44.9627 54.1315 42.7282C53.1536 40.4032 52.6582 37.9426 52.6582 35.4046C52.6582 32.8665 53.1536 30.4059 54.1315 28.081C55.0772 25.84 56.4282 23.8315 58.146 22.1071C59.8637 20.3828 61.8709 19.0265 64.0969 18.0772C66.4129 17.0955 68.8641 16.5983 71.3924 16.5983C73.9207 16.5983 76.3719 17.0955 78.6879 18.0772C80.9203 19.0265 82.9211 20.3828 84.6389 22.1071C86.3566 23.8315 87.7076 25.8464 88.6533 28.081C89.6312 30.4059 90.1266 32.8665 90.1266 35.4046C90.1266 37.9426 89.6312 40.4032 88.6533 42.7282C87.7076 44.9692 86.3566 46.9777 84.6389 48.702C82.9211 50.4264 80.9139 51.7826 78.6879 52.7319C76.3719 53.7136 73.9143 54.2109 71.3924 54.2109ZM71.3924 27.5708C67.0949 27.5708 63.5951 31.084 63.5951 35.3981C63.5951 39.7122 67.0949 43.2255 71.3924 43.2255C75.6899 43.2255 79.1897 39.7122 79.1897 35.3981C79.1897 31.084 75.6899 27.5708 71.3924 27.5708Z" fill="url(#paint2_linear_115_4947)"/>
<path d="M141.266 36.9294C138.737 36.9294 136.286 36.4456 133.97 35.4904C131.738 34.5667 129.737 33.2472 128.019 31.5694C126.302 29.8917 124.951 27.9312 124.005 25.7571C123.027 23.4949 122.532 21.1009 122.532 18.6314C122.532 16.1619 123.027 13.7678 124.005 11.5057C124.951 9.32527 126.302 7.37105 128.019 5.69331C129.737 4.01557 131.744 2.696 133.97 1.7723C136.286 0.817186 138.737 0.333344 141.266 0.333344C143.794 0.333344 146.245 0.817186 148.561 1.7723C150.794 2.696 152.795 4.01557 154.512 5.69331C156.23 7.37105 157.581 9.33155 158.527 11.5057C159.505 13.7678 160 16.1619 160 18.6314C160 21.1009 159.505 23.4949 158.527 25.7571C157.581 27.9375 156.23 29.8917 154.512 31.5694C152.795 33.2472 150.787 34.5667 148.561 35.4904C146.252 36.4456 143.794 36.9294 141.266 36.9294ZM141.266 11.0093C136.968 11.0093 133.468 14.4276 133.468 18.6251C133.468 22.8226 136.968 26.2409 141.266 26.2409C145.563 26.2409 149.063 22.8226 149.063 18.6251C149.07 14.4276 145.57 11.0093 141.266 11.0093Z" fill="url(#paint3_linear_115_4947)"/>
<defs>
<linearGradient id="paint0_linear_115_4947" x1="11.5592" y1="5.03938" x2="37.0534" y2="79.101" gradientUnits="userSpaceOnUse">
<stop stop-color="#9760F2"/>
<stop offset="1" stop-color="#6A3BE4"/>
</linearGradient>
<linearGradient id="paint1_linear_115_4947" x1="11.5592" y1="5.03938" x2="37.0534" y2="79.101" gradientUnits="userSpaceOnUse">
<stop stop-color="#9760F2"/>
<stop offset="1" stop-color="#6A3BE4"/>
</linearGradient>
<linearGradient id="paint2_linear_115_4947" x1="11.5592" y1="5.03938" x2="37.0534" y2="79.101" gradientUnits="userSpaceOnUse">
<stop stop-color="#9760F2"/>
<stop offset="1" stop-color="#6A3BE4"/>
</linearGradient>
<linearGradient id="paint3_linear_115_4947" x1="11.5592" y1="5.03938" x2="37.0534" y2="79.101" gradientUnits="userSpaceOnUse">
<stop stop-color="#9760F2"/>
<stop offset="1" stop-color="#6A3BE4"/>
</linearGradient>
</defs>
</svg>
